<svg width="100" height="100" viewBox="0 0 100 100" fill="none" xmlns="http://www.w3.org/2000/svg">
<path d="M50.0003 58.333L48.5861 59.7472L50.0003 61.1614L51.4145 59.7472L50.0003 58.333ZM52.0003 20.833C52.0003 19.7284 51.1049 18.833 50.0003 18.833C48.8958 18.833 48.0003 19.7284 48.0003 20.833L50.0003 20.833L52.0003 20.833ZM29.167 37.4997L27.7528 38.9139L48.5861 59.7472L50.0003 58.333L51.4145 56.9188L30.5812 36.0855L29.167 37.4997ZM50.0003 58.333L51.4145 59.7472L72.2479 38.9139L70.8337 37.4997L69.4194 36.0855L48.5861 56.9188L50.0003 58.333ZM50.0003 58.333L52.0003 58.333L52.0003 20.833L50.0003 20.833L48.0003 20.833L48.0003 58.333L50.0003 58.333Z" fill="#99A2AD"/>
<path d="M20.833 66.667L20.833 70.8337C20.833 75.436 24.564 79.167 29.1663 79.167L70.833 79.167C75.4354 79.167 79.1663 75.436 79.1663 70.8337V66.667" stroke="#99A2AD" stroke-width="4"/>
</svg>
