<svg width="20" height="20" viewBox="0 0 20 20" fill="none" xmlns="http://www.w3.org/2000/svg">
<path d="M15 11.6667L15.9596 10.7072C16.3501 10.3167 16.3501 9.6835 15.9596 9.29298L15 8.33341" stroke="#FF3348" stroke-width="1.5" stroke-linecap="round" stroke-linejoin="round"/>
<path d="M15.8333 10L10.8333 10M3.33331 14.3886V6.05527M13.3333 14.3886C13.3333 15.3091 12.5871 16.0553 11.6666 16.0553H8.33331M13.3333 6.05527C13.3333 5.1348 12.5871 4.38861 11.6666 4.38861H8.33331M4.07548 16.5501L5.74215 17.6612C6.84974 18.3996 8.33331 17.6056 8.33331 16.2744V4.16947C8.33331 2.83831 6.84974 2.04432 5.74215 2.78272L4.07548 3.89383C3.61181 4.20294 3.33331 4.72333 3.33331 5.28058V15.1633C3.33331 15.7206 3.61181 16.2409 4.07548 16.5501Z" stroke="#FF3348" stroke-width="1.3" stroke-linecap="round"/>
</svg>
