<svg width="16" height="16" viewBox="0 0 16 16" fill="none" xmlns="http://www.w3.org/2000/svg">
<g clip-path="url(#clip0_808_328)">
<path d="M12.3722 13.0332C11.7099 11.2618 10.0021 10.0007 7.99968 10.0007C5.99726 10.0007 4.28941 11.2618 3.62712 13.0332M12.3722 13.0332C13.7778 11.8109 14.6663 10.0096 14.6663 8.00065C14.6663 4.31875 11.6816 1.33398 7.99968 1.33398C4.31778 1.33398 1.33301 4.31875 1.33301 8.00065C1.33301 10.0096 2.22157 11.8109 3.62712 13.0332M12.3722 13.0332C11.2017 14.0511 9.67266 14.6673 7.99968 14.6673C6.32669 14.6673 4.79763 14.0511 3.62712 13.0332M9.99967 6.00065C9.99967 7.10522 9.10424 8.00065 7.99968 8.00065C6.89511 8.00065 5.99967 7.10522 5.99967 6.00065C5.99967 4.89608 6.89511 4.00065 7.99968 4.00065C9.10424 4.00065 9.99967 4.89608 9.99967 6.00065Z" stroke="#6A42AB" stroke-linejoin="round"/>
</g>
<defs>
<clipPath id="clip0_808_328">
<rect width="16" height="16" fill="white"/>
</clipPath>
</defs>
</svg>
