<svg width="24" height="24" viewBox="0 0 24 24" fill="none" xmlns="http://www.w3.org/2000/svg">
<path d="M20.8772 9.32111C22.3743 10.7542 22.3743 13.2458 20.8772 14.6789C18.8134 16.6545 15.6042 19 12 19C8.3958 19 5.18662 16.6545 3.12281 14.6789C1.62573 13.2458 1.62573 10.7542 3.12281 9.32111C5.18661 7.34551 8.3958 5 12 5C15.6042 5 18.8134 7.34551 20.8772 9.32111Z" stroke="#6A42AB" stroke-width="1.5" stroke-linecap="round"/>
<path d="M15 12C15 13.6569 13.6568 15 12 15C10.3431 15 8.99997 13.6569 8.99997 12C8.99997 10.3431 10.3431 9 12 9C13.6568 9 15 10.3431 15 12Z" stroke="#6A42AB" stroke-width="1.5" stroke-linecap="round"/>
</svg>
