<svg width="24" height="23" viewBox="0 0 24 23" fill="none" xmlns="http://www.w3.org/2000/svg">
<path d="M17.505 0C16.379 0.0175149 15.2775 0.331853 14.3118 0.911271C13.3461 1.49069 12.5504 2.31467 12.005 3.3C11.4597 2.31467 10.664 1.49069 9.69827 0.911271C8.73257 0.331853 7.63108 0.0175149 6.50503 0C4.70998 0.0779907 3.01874 0.863254 1.80082 2.18423C0.582894 3.50521 -0.0627164 5.25453 0.00503417 7.05C0.00503417 13.825 10.961 21.65 11.427 21.982L12.005 22.391L12.583 21.982C13.049 21.652 24.005 13.825 24.005 7.05C24.0728 5.25453 23.4272 3.50521 22.2093 2.18423C20.9913 0.863254 19.3001 0.0779907 17.505 0Z" fill="#FF3348"/>
</svg>
