<svg width="24" height="24" viewBox="0 0 24 24" fill="none" xmlns="http://www.w3.org/2000/svg">
<path d="M17.0396 1C16.0078 1.01721 14.9985 1.32606 14.1137 1.89536C13.2288 2.46466 12.4997 3.27425 12 4.24237C11.5003 3.27425 10.7712 2.46466 9.88632 1.89536C9.00145 1.32606 7.99216 1.01721 6.96037 1C5.31556 1.07663 3.76589 1.84818 2.64991 3.14609C1.53393 4.444 0.942356 6.16277 1.00444 7.92689C1.00444 14.5836 11.0434 22.2719 11.4704 22.5981L12 23L12.5296 22.5981C12.9566 22.2739 22.9956 14.5836 22.9956 7.92689C23.0576 6.16277 22.4661 4.444 21.3501 3.14609C20.2341 1.84818 18.6844 1.07663 17.0396 1ZM12 20.581C9.01929 18.1934 2.83703 12.3277 2.83703 7.92689C2.77439 6.6837 3.17273 5.46439 3.94517 4.53488C4.7176 3.60537 5.80147 3.04107 6.96037 2.96508C8.11927 3.04107 9.20313 3.60537 9.97557 4.53488C10.748 5.46439 10.6211 5.42142 11.0793 6.40396H12.9119C13.2861 5.42142 13.252 5.46439 14.0244 4.53488C14.7969 3.60537 15.8807 3.04107 17.0396 2.96508C18.1985 3.04107 19.2824 3.60537 20.0548 4.53488C20.8273 5.46439 21.2256 6.6837 21.163 7.92689C21.163 12.3296 14.9807 18.1934 12 20.581Z" fill="#99A2AD"/>
</svg>
