<svg width="24" height="24" viewBox="0 0 24 24" fill="none" xmlns="http://www.w3.org/2000/svg">
<path d="M13.4886 2.53791C13.1746 2.59417 12.8793 2.78167 12.7246 3.0301L12.584 3.2551L12.5605 5.36916L12.5371 7.48323L11.7871 7.46916C9.46208 7.4176 7.45583 7.9426 5.83396 9.01135C5.20583 9.42385 4.38552 10.2301 3.92615 10.8817C2.98396 12.2129 2.34646 14.0129 2.1074 15.991C1.9574 17.2332 1.96677 19.666 2.12146 20.0364C2.2199 20.2707 2.5199 20.5848 2.74021 20.6832C2.99802 20.8004 3.38708 20.7957 3.64021 20.6739C3.88396 20.5567 4.03396 20.3832 4.22615 20.0035C4.50271 19.4457 4.88708 18.916 5.33708 18.4707C6.03083 17.7723 6.7574 17.341 7.80271 17.0082C8.87615 16.666 9.87458 16.5442 11.459 16.5629L12.5371 16.577L12.5605 18.4051L12.584 20.2332L12.7058 20.4442C12.8652 20.7114 12.9543 20.791 13.2402 20.9176C13.4136 20.9973 13.5215 21.0114 13.7136 20.9926C14.2621 20.9364 14.1027 21.077 18.5511 16.6332C21.3355 13.8489 22.7183 12.4379 22.7793 12.3067C22.8449 12.1801 22.873 12.0207 22.873 11.8145C22.873 11.1957 23.0652 11.416 18.4621 6.8176C16.0621 4.42229 14.2574 2.65979 14.1777 2.62698C13.9668 2.5426 13.6808 2.50979 13.4886 2.53791ZM17.6933 15.3817L14.084 18.991L14.0605 17.5004L14.0371 16.0098L13.8965 15.7332C13.6011 15.152 13.3621 15.091 11.3418 15.091C9.4949 15.091 8.43552 15.2317 7.18396 15.6395C5.6324 16.1504 4.44177 17.0035 3.54646 18.241C3.46677 18.3535 3.46208 18.3395 3.49021 17.6129C3.61208 14.2942 4.66208 11.777 6.46677 10.4504C7.36677 9.78948 8.34177 9.39573 9.71521 9.13323C10.1793 9.04416 10.4136 9.03479 11.7636 9.0301C13.4605 9.0301 13.4371 9.03479 13.7324 8.69729C14.0371 8.34573 14.0371 8.37385 14.0511 6.36292L14.0652 4.53479L17.684 8.15354L21.3027 11.7723L17.6933 15.3817Z" fill="#99A2AD"/>
</svg>
