<svg width="24" height="24" viewBox="0 0 24 24" fill="none" xmlns="http://www.w3.org/2000/svg">
<g clip-path="url(#clip0_3840_745)">
<path fill-rule="evenodd" clip-rule="evenodd" d="M14.9232 7.69231C14.9232 9.17923 13.7178 10.3846 12.2309 10.3846C10.744 10.3846 9.53857 9.17923 9.53857 7.69231C9.53857 6.20539 10.744 5 12.2309 5C13.7178 5 14.9232 6.20539 14.9232 7.69231Z" stroke="currentColor" stroke-width="1.3" stroke-linecap="round" stroke-linejoin="round" fill="none"/>
<path fill-rule="evenodd" clip-rule="evenodd" d="M17.0771 15.7687C17.0771 17.549 14.9076 19 12.2304 19C9.55315 19 7.38477 17.553 7.38477 15.7687C7.38477 13.9845 9.55419 12.5385 12.2314 12.5385C14.9087 12.5385 17.0771 13.9845 17.0771 15.7687Z" stroke="currentColor" stroke-width="1.5" stroke-linecap="round" stroke-linejoin="round" fill="none"/>
<path fill-rule="evenodd" clip-rule="evenodd" d="M20.5232 8.87693C20.5232 9.82856 19.7517 10.6 18.8001 10.6C17.8485 10.6 17.077 9.82856 17.077 8.87693C17.077 7.9253 17.8485 7.15385 18.8001 7.15385C19.2571 7.15385 19.6954 7.33539 20.0185 7.65853C20.3417 7.98167 20.5232 8.41994 20.5232 8.87693Z" stroke="currentColor" stroke-width="1.2" stroke-linecap="round" stroke-linejoin="round" fill="none"/>
<path d="M19.231 18.2934C20.971 18.4362 22.5044 17.1581 22.6771 15.4208C22.5037 13.684 20.9705 12.4065 19.231 12.5494" stroke="currentColor" stroke-width="1.5" stroke-linecap="round" stroke-linejoin="round" fill="none"/>
<path fill-rule="evenodd" clip-rule="evenodd" d="M4.15404 8.87693C4.15404 9.82856 4.9255 10.6 5.87713 10.6C6.82877 10.6 7.60022 9.82856 7.60022 8.87693C7.60022 7.9253 6.82877 7.15385 5.87713 7.15385C5.42014 7.15385 4.98187 7.33539 4.65872 7.65853C4.33558 7.98167 4.15404 8.41994 4.15404 8.87693Z" stroke="currentColor" stroke-width="1.2" stroke-linecap="round" stroke-linejoin="round" fill="none"/>
<path d="M5.44629 18.2934C3.70627 18.4362 2.17287 17.1581 2.00011 15.4208C2.1735 13.684 3.7067 12.4065 5.44629 12.5494" stroke="currentColor" stroke-width="1.5" stroke-linecap="round" stroke-linejoin="round" fill="none"/>
</g>
<defs>
<clipPath id="clip0_3840_745">
<rect width="24" height="24" fill="none"/>
</clipPath>
</defs>
</svg>
