<svg width="24" height="24" viewBox="0 0 24 24" fill="none" xmlns="http://www.w3.org/2000/svg">
<path fill-rule="evenodd" clip-rule="evenodd" d="M12.0001 6.66629C12.0001 8.13884 10.8063 9.33258 9.33378 9.33258C7.86122 9.33258 6.66748 8.13884 6.66748 6.66629C6.66748 5.19374 7.86122 4 9.33378 4C10.8063 4 12.0001 5.19374 12.0001 6.66629Z" stroke="currentColor" stroke-width="1.3" stroke-linecap="round" stroke-linejoin="round" fill="none"/>
<path fill-rule="evenodd" clip-rule="evenodd" d="M14.6664 16.2663C14.6664 18.3234 12.2789 20 9.33261 20C6.3863 20 4 18.328 4 16.2663C4 14.2046 6.38744 12.5337 9.33375 12.5337C12.2801 12.5337 14.6664 14.2046 14.6664 16.2663Z" stroke="currentColor" stroke-width="1.5" stroke-linecap="round" stroke-linejoin="round" fill="none"/>
<path fill-rule="evenodd" clip-rule="evenodd" d="M17.6444 9.15567C17.6444 10.0393 16.928 10.7557 16.0443 10.7557C15.1607 10.7557 14.4443 10.0393 14.4443 9.15567C14.4443 8.27201 15.1607 7.55566 16.0443 7.55566C16.4687 7.55566 16.8757 7.72424 17.1757 8.02429C17.4758 8.32435 17.6444 8.73132 17.6444 9.15567Z" stroke="currentColor" stroke-width="1.2" stroke-linecap="round" stroke-linejoin="round" fill="none"/>
<path d="M16.7998 18.9337C18.4155 19.0664 19.8394 17.8795 19.9998 16.2663C19.8388 14.6535 18.4151 13.4673 16.7998 13.6" stroke="currentColor" stroke-width="1.5" stroke-linecap="round" stroke-linejoin="round" fill="none"/>
</svg>
