<svg width="16" height="17" viewBox="0 0 16 17" fill="none" xmlns="http://www.w3.org/2000/svg">
<path d="M6.66699 10.5L6.66699 8.5" stroke="#FF3348" stroke-linecap="round"/>
<path d="M9.33301 10.5L9.33301 8.5" stroke="#FF3348" stroke-linecap="round"/>
<path d="M2 5.16699H14C12.8954 5.16699 12 6.06242 12 7.16699V9.83366C12 11.7193 12 12.6621 11.4142 13.2479C10.8284 13.8337 9.88562 13.8337 8 13.8337C6.11438 13.8337 5.17157 13.8337 4.58579 13.2479C4 12.6621 4 11.7193 4 9.83366V7.16699C4 6.06242 3.10457 5.16699 2 5.16699Z" stroke="#FF3348" stroke-linecap="round"/>
<path d="M6.71177 2.74706C6.78774 2.67618 6.95513 2.61355 7.18799 2.56888C7.42085 2.52421 7.70616 2.5 7.99967 2.5C8.29319 2.5 8.5785 2.52421 8.81136 2.56888C9.04422 2.61355 9.21161 2.67618 9.28758 2.74706" stroke="#FF3348" stroke-linecap="round"/>
</svg>
