<svg width="130" height="130" viewBox="0 0 130 130" fill="none" xmlns="http://www.w3.org/2000/svg">
<rect width="130" height="130" rx="65" fill="#EDEEF0"/>
<path fill-rule="evenodd" clip-rule="evenodd" d="M42.5002 40C42.5002 27.5736 52.5738 17.5 65.0002 17.5C77.4266 17.5 87.5002 27.5736 87.5002 40C87.5002 52.4264 77.4266 62.5 65.0002 62.5C52.5738 62.5 42.5002 52.4264 42.5002 40Z" fill="#99A2AD"/>
<path fill-rule="evenodd" clip-rule="evenodd" d="M23.7564 110.527C24.1431 88.0778 42.4601 70 65.0002 70C87.5408 70 105.858 88.0787 106.244 110.528C106.27 112.017 105.412 113.38 104.058 114.001C92.1638 119.459 78.9328 122.5 65.0018 122.5C51.0695 122.5 37.8374 119.458 25.9418 113.999C24.5884 113.378 23.7308 112.015 23.7564 110.527Z" fill="#99A2AD"/>
</svg>
