<svg width="24" height="24" viewBox="0 0 24 24" fill="none" xmlns="http://www.w3.org/2000/svg">
<rect width="24" height="24" rx="4" fill="#6A42AB"/>
<path d="M12.29 18.17C10.6467 18.17 9.38867 17.745 8.516 16.895C7.65467 16.0337 7.224 14.7643 7.224 13.087V6.015H9.4V13.07C9.4 14.1467 9.64367 14.957 10.131 15.501C10.6297 16.0337 11.3493 16.3 12.29 16.3C13.2307 16.3 13.9447 16.0337 14.432 15.501C14.9193 14.957 15.163 14.1467 15.163 13.07V6.015H17.322V13.087C17.322 14.7643 16.897 16.0337 16.047 16.895C15.197 17.745 13.9447 18.17 12.29 18.17Z" fill="white"/>
</svg>
