<svg width="60" height="19" viewBox="0 0 60 19" fill="none" xmlns="http://www.w3.org/2000/svg">
<path d="M7.4502 18.1504C5.03353 18.1504 3.18353 17.5254 1.9002 16.2754C0.633529 15.0087 0.000195421 13.1421 0.000195421 10.6754V0.27539H3.2002V10.6504C3.2002 12.2337 3.55853 13.4254 4.2752 14.2254C5.00853 15.0087 6.06686 15.4004 7.4502 15.4004C8.83353 15.4004 9.88353 15.0087 10.6002 14.2254C11.3169 13.4254 11.6752 12.2337 11.6752 10.6504V0.27539H14.8502V10.6754C14.8502 13.1421 14.2252 15.0087 12.9752 16.2754C11.7252 17.5254 9.88353 18.1504 7.4502 18.1504Z" fill="#6A42AB"/>
<path d="M18.2822 17.9004V5.67539H21.3322V8.12539H21.0572C21.4239 7.24206 21.9906 6.57539 22.7572 6.12539C23.5406 5.65872 24.4239 5.42539 25.4072 5.42539C26.3906 5.42539 27.1989 5.60872 27.8322 5.97539C28.4656 6.34206 28.9406 6.90039 29.2572 7.65039C29.5739 8.38372 29.7322 9.31706 29.7322 10.4504V17.9004H26.6072V10.6004C26.6072 9.96706 26.5239 9.45039 26.3572 9.05039C26.2072 8.65039 25.9656 8.35872 25.6322 8.17539C25.3156 7.97539 24.9072 7.87539 24.4072 7.87539C23.8072 7.87539 23.2822 8.00872 22.8322 8.27539C22.3822 8.52539 22.0322 8.89206 21.7822 9.37539C21.5322 9.84206 21.4072 10.3921 21.4072 11.0254V17.9004H18.2822ZM32.7063 3.05039V0.000390112H36.2063V3.05039H32.7063ZM32.9063 17.9004V5.67539H36.0313V17.9004H32.9063ZM44.8783 18.1504C43.245 18.1504 42.0283 17.7421 41.2283 16.9254C40.4283 16.1087 40.0283 14.9171 40.0283 13.3504V8.02539H37.6783V5.67539H40.0283V2.02539H43.1533V5.67539H46.8533V8.02539H43.1533V13.1754C43.1533 13.9754 43.3283 14.5754 43.6783 14.9754C44.0283 15.3754 44.595 15.5754 45.3783 15.5754C45.6117 15.5754 45.8533 15.5504 46.1033 15.5004C46.3533 15.4337 46.6117 15.3671 46.8783 15.3004L47.3533 17.6004C47.0533 17.7671 46.67 17.9004 46.2033 18.0004C45.7533 18.1004 45.3117 18.1504 44.8783 18.1504ZM54.776 18.1504C53.3926 18.1504 52.201 17.8921 51.201 17.3754C50.201 16.8587 49.426 16.1254 48.876 15.1754C48.3426 14.2254 48.076 13.1004 48.076 11.8004C48.076 10.5337 48.3343 9.42539 48.851 8.47539C49.3843 7.52539 50.1093 6.78372 51.026 6.25039C51.9593 5.70039 53.0176 5.42539 54.201 5.42539C55.3676 5.42539 56.3676 5.67539 57.201 6.17539C58.0343 6.67539 58.676 7.38372 59.126 8.30039C59.5926 9.21706 59.826 10.3087 59.826 11.5754V12.5004H50.601V10.7004H57.626L57.226 11.0754C57.226 9.94206 56.976 9.07539 56.476 8.47539C55.976 7.85872 55.2593 7.55039 54.326 7.55039C53.626 7.55039 53.026 7.71706 52.526 8.05039C52.0426 8.36706 51.6676 8.82539 51.401 9.42539C51.151 10.0087 51.026 10.7087 51.026 11.5254V11.7004C51.026 12.6171 51.1676 13.3754 51.451 13.9754C51.7343 14.5754 52.1593 15.0254 52.726 15.3254C53.2926 15.6254 53.9926 15.7754 54.826 15.7754C55.5093 15.7754 56.1926 15.6754 56.876 15.4754C57.5593 15.2587 58.1843 14.9254 58.751 14.4754L59.626 16.5754C59.0426 17.0587 58.3093 17.4421 57.426 17.7254C56.5426 18.0087 55.6593 18.1504 54.776 18.1504Z" fill="#28303F"/>
</svg>
