<svg width="77" height="24" viewBox="0 0 77 24" fill="none" xmlns="http://www.w3.org/2000/svg">
<path d="M9.53601 23.232C6.44268 23.232 4.07468 22.432 2.43201 20.832C0.810681 19.2107 1.45435e-05 16.8213 1.45435e-05 13.664V0.351986H4.09601V13.632C4.09601 15.6587 4.55468 17.184 5.47201 18.208C6.41068 19.2107 7.76535 19.712 9.53601 19.712C11.3067 19.712 12.6507 19.2107 13.568 18.208C14.4853 17.184 14.944 15.6587 14.944 13.632V0.351986H19.008V13.664C19.008 16.8213 18.208 19.2107 16.608 20.832C15.008 22.432 12.6507 23.232 9.53601 23.232ZM23.401 22.912V7.26399H27.305V10.4H26.953C27.4223 9.26932 28.1477 8.41599 29.129 7.83999C30.1317 7.24265 31.2623 6.94399 32.521 6.94399C33.7797 6.94399 34.8143 7.17865 35.625 7.64799C36.4357 8.11732 37.0437 8.83199 37.449 9.79199C37.8543 10.7307 38.057 11.9253 38.057 13.376V22.912H34.057V13.568C34.057 12.7573 33.9503 12.096 33.737 11.584C33.545 11.072 33.2357 10.6987 32.809 10.464C32.4037 10.208 31.881 10.08 31.241 10.08C30.473 10.08 29.801 10.2507 29.225 10.592C28.649 10.912 28.201 11.3813 27.881 12C27.561 12.5973 27.401 13.3013 27.401 14.112V22.912H23.401ZM41.8638 3.90399V-1.33514e-05H46.3438V3.90399H41.8638ZM42.1198 22.912V7.26399H46.1198V22.912H42.1198ZM57.444 23.232C55.3533 23.232 53.796 22.7093 52.772 21.664C51.748 20.6187 51.236 19.0933 51.236 17.088V10.272H48.228V7.26399H51.236V2.59199H55.236V7.26399H59.972V10.272H55.236V16.864C55.236 17.888 55.46 18.656 55.908 19.168C56.356 19.68 57.0813 19.936 58.084 19.936C58.3827 19.936 58.692 19.904 59.012 19.84C59.332 19.7547 59.6627 19.6693 60.004 19.584L60.612 22.528C60.228 22.7413 59.7373 22.912 59.14 23.04C58.564 23.168 57.9987 23.232 57.444 23.232ZM70.113 23.232C68.3423 23.232 66.817 22.9013 65.537 22.24C64.257 21.5787 63.265 20.64 62.561 19.424C61.8783 18.208 61.537 16.768 61.537 15.104C61.537 13.4827 61.8677 12.064 62.529 10.848C63.2117 9.63199 64.1397 8.68265 65.313 7.99999C66.5077 7.29599 67.8623 6.94399 69.377 6.94399C70.8703 6.94399 72.1503 7.26399 73.217 7.90399C74.2837 8.54399 75.105 9.45065 75.681 10.624C76.2783 11.7973 76.577 13.1947 76.577 14.816V16H64.769V13.696H73.761L73.249 14.176C73.249 12.7253 72.929 11.616 72.289 10.848C71.649 10.0587 70.7317 9.66399 69.537 9.66399C68.641 9.66399 67.873 9.87732 67.233 10.304C66.6143 10.7093 66.1343 11.296 65.793 12.064C65.473 12.8107 65.313 13.7067 65.313 14.752V14.976C65.313 16.1493 65.4943 17.12 65.857 17.888C66.2197 18.656 66.7637 19.232 67.489 19.616C68.2143 20 69.1103 20.192 70.177 20.192C71.0517 20.192 71.9263 20.064 72.801 19.808C73.6757 19.5307 74.4757 19.104 75.201 18.528L76.321 21.216C75.5743 21.8347 74.6357 22.3253 73.505 22.688C72.3743 23.0507 71.2437 23.232 70.113 23.232Z" fill="#6A42AB"/>
</svg>
