<svg width="204" height="34" viewBox="0 0 204 34" fill="none" xmlns="http://www.w3.org/2000/svg">
<path d="M12.8 30.4C11.3333 30.4 9.92 30.2667 8.56 30C7.22667 29.76 5.98667 29.4 4.84 28.92C3.72 28.44 2.72 27.8667 1.84 27.2L3.4 23.16C4.28 23.7733 5.2 24.3067 6.16 24.76C7.14667 25.1867 8.18667 25.52 9.28 25.76C10.4 25.9733 11.5733 26.08 12.8 26.08C14.9067 26.08 16.44 25.7333 17.4 25.04C18.36 24.32 18.84 23.4 18.84 22.28C18.84 21.6667 18.6933 21.1467 18.4 20.72C18.1067 20.2667 17.6267 19.88 16.96 19.56C16.2933 19.24 15.4133 18.9733 14.32 18.76L9.92 17.84C7.38667 17.3067 5.49333 16.4133 4.24 15.16C3.01333 13.88 2.4 12.2 2.4 10.12C2.4 8.36 2.86667 6.82667 3.8 5.52C4.73333 4.21333 6.02667 3.2 7.68 2.48C9.33333 1.76 11.24 1.4 13.4 1.4C14.68 1.4 15.9067 1.53333 17.08 1.8C18.28 2.04 19.3733 2.41333 20.36 2.92C21.3733 3.4 22.2533 3.98667 23 4.68L21.44 8.52C20.32 7.58667 19.0933 6.89333 17.76 6.44C16.4267 5.96 14.96 5.72 13.36 5.72C12.1333 5.72 11.08 5.89333 10.2 6.24C9.32 6.58667 8.64 7.08 8.16 7.72C7.70667 8.33333 7.48 9.06667 7.48 9.92C7.48 10.88 7.8 11.6533 8.44 12.24C9.08 12.8 10.1733 13.24 11.72 13.56L16.08 14.48C18.72 15.04 20.68 15.92 21.96 17.12C23.2667 18.32 23.92 19.92 23.92 21.92C23.92 23.6 23.4667 25.08 22.56 26.36C21.6533 27.64 20.36 28.64 18.68 29.36C17.0267 30.0533 15.0667 30.4 12.8 30.4ZM28.3144 30V1.8H33.4344V25.64H46.9544V30H28.3144ZM50.7753 30V1.8H63.0153C65.0953 1.8 66.8553 2.14667 68.2953 2.84C69.7353 3.53333 70.8286 4.53333 71.5753 5.84C72.322 7.14667 72.6953 8.73333 72.6953 10.6C72.6953 12.44 72.322 14.0267 71.5753 15.36C70.8286 16.6667 69.7353 17.68 68.2953 18.4C66.8553 19.0933 65.0953 19.44 63.0153 19.44H55.8953V30H50.7753ZM55.8953 15.4H62.2153C64.0286 15.4 65.402 15 66.3353 14.2C67.2686 13.3733 67.7353 12.1733 67.7353 10.6C67.7353 9.02667 67.2686 7.84 66.3353 7.04C65.402 6.24 64.0286 5.84 62.2153 5.84H55.8953V15.4ZM86.5891 30.4C85.1224 30.4 83.7091 30.2667 82.3491 30C81.0157 29.76 79.7757 29.4 78.6291 28.92C77.5091 28.44 76.5091 27.8667 75.6291 27.2L77.1891 23.16C78.0691 23.7733 78.9891 24.3067 79.9491 24.76C80.9357 25.1867 81.9757 25.52 83.0691 25.76C84.1891 25.9733 85.3624 26.08 86.5891 26.08C88.6957 26.08 90.2291 25.7333 91.1891 25.04C92.1491 24.32 92.6291 23.4 92.6291 22.28C92.6291 21.6667 92.4824 21.1467 92.1891 20.72C91.8957 20.2667 91.4157 19.88 90.7491 19.56C90.0824 19.24 89.2024 18.9733 88.1091 18.76L83.7091 17.84C81.1757 17.3067 79.2824 16.4133 78.0291 15.16C76.8024 13.88 76.1891 12.2 76.1891 10.12C76.1891 8.36 76.6557 6.82667 77.5891 5.52C78.5224 4.21333 79.8157 3.2 81.4691 2.48C83.1224 1.76 85.0291 1.4 87.1891 1.4C88.4691 1.4 89.6957 1.53333 90.8691 1.8C92.0691 2.04 93.1624 2.41333 94.1491 2.92C95.1624 3.4 96.0424 3.98667 96.7891 4.68L95.2291 8.52C94.1091 7.58667 92.8824 6.89333 91.5491 6.44C90.2157 5.96 88.7491 5.72 87.1491 5.72C85.9224 5.72 84.8691 5.89333 83.9891 6.24C83.1091 6.58667 82.4291 7.08 81.9491 7.72C81.4957 8.33333 81.2691 9.06667 81.2691 9.92C81.2691 10.88 81.5891 11.6533 82.2291 12.24C82.8691 12.8 83.9624 13.24 85.5091 13.56L89.8691 14.48C92.5091 15.04 94.4691 15.92 95.7491 17.12C97.0557 18.32 97.7091 19.92 97.7091 21.92C97.7091 23.6 97.2557 25.08 96.3491 26.36C95.4424 27.64 94.1491 28.64 92.4691 29.36C90.8157 30.0533 88.8557 30.4 86.5891 30.4Z" fill="#6A42AB"/>
<path d="M121.365 30.4C118.751 30.4 116.805 29.7467 115.525 28.44C114.245 27.1333 113.605 25.2267 113.605 22.72V14.2H109.845V10.44H113.605V4.6H118.605V10.44H124.525V14.2H118.605V22.44C118.605 23.72 118.885 24.68 119.445 25.32C120.005 25.96 120.911 26.28 122.165 26.28C122.538 26.28 122.925 26.24 123.325 26.16C123.725 26.0533 124.138 25.9467 124.565 25.84L125.325 29.52C124.845 29.7867 124.231 30 123.485 30.16C122.765 30.32 122.058 30.4 121.365 30.4ZM137.201 30.4C134.988 30.4 133.081 29.9867 131.481 29.16C129.881 28.3333 128.641 27.16 127.761 25.64C126.908 24.12 126.481 22.32 126.481 20.24C126.481 18.2133 126.894 16.44 127.721 14.92C128.574 13.4 129.734 12.2133 131.201 11.36C132.694 10.48 134.388 10.04 136.281 10.04C138.148 10.04 139.748 10.44 141.081 11.24C142.414 12.04 143.441 13.1733 144.161 14.64C144.908 16.1067 145.281 17.8533 145.281 19.88V21.36H130.521V18.48H141.761L141.121 19.08C141.121 17.2667 140.721 15.88 139.921 14.92C139.121 13.9333 137.974 13.44 136.481 13.44C135.361 13.44 134.401 13.7067 133.601 14.24C132.828 14.7467 132.228 15.48 131.801 16.44C131.401 17.3733 131.201 18.4933 131.201 19.8V20.08C131.201 21.5467 131.428 22.76 131.881 23.72C132.334 24.68 133.014 25.4 133.921 25.88C134.828 26.36 135.948 26.6 137.281 26.6C138.374 26.6 139.468 26.44 140.561 26.12C141.654 25.7733 142.654 25.24 143.561 24.52L144.961 27.88C144.028 28.6533 142.854 29.2667 141.441 29.72C140.028 30.1733 138.614 30.4 137.201 30.4ZM155.681 30.4C154.267 30.4 153.001 30.1333 151.881 29.6C150.787 29.04 149.921 28.2933 149.281 27.36C148.667 26.4267 148.361 25.3733 148.361 24.2C148.361 22.76 148.734 21.6267 149.481 20.8C150.227 19.9467 151.441 19.3333 153.121 18.96C154.801 18.5867 157.054 18.4 159.881 18.4H161.881V21.28H159.921C158.667 21.28 157.614 21.3333 156.761 21.44C155.907 21.52 155.214 21.6667 154.681 21.88C154.174 22.0667 153.801 22.3333 153.561 22.68C153.347 23.0267 153.241 23.4533 153.241 23.96C153.241 24.84 153.547 25.56 154.161 26.12C154.774 26.68 155.627 26.96 156.721 26.96C157.601 26.96 158.374 26.76 159.041 26.36C159.734 25.9333 160.281 25.36 160.681 24.64C161.081 23.92 161.281 23.0933 161.281 22.16V17.56C161.281 16.2267 160.987 15.2667 160.401 14.68C159.814 14.0933 158.827 13.8 157.441 13.8C156.347 13.8 155.227 13.9733 154.081 14.32C152.934 14.64 151.774 15.1467 150.601 15.84L149.161 12.44C149.854 11.96 150.667 11.5467 151.601 11.2C152.561 10.8267 153.561 10.5467 154.601 10.36C155.667 10.1467 156.667 10.04 157.601 10.04C159.521 10.04 161.094 10.3333 162.321 10.92C163.574 11.5067 164.507 12.4 165.121 13.6C165.734 14.7733 166.041 16.2933 166.041 18.16V30H161.361V25.84H161.681C161.494 26.7733 161.121 27.5867 160.561 28.28C160.027 28.9467 159.347 29.4667 158.521 29.84C157.694 30.2133 156.747 30.4 155.681 30.4ZM171.196 30V10.44H176.076V14.36H175.636C175.982 13.4533 176.462 12.68 177.076 12.04C177.689 11.4 178.422 10.9067 179.276 10.56C180.129 10.2133 181.076 10.04 182.116 10.04C183.689 10.04 184.982 10.4133 185.996 11.16C187.009 11.9067 187.716 13.0533 188.116 14.6H187.556C188.089 13.1867 188.969 12.08 190.196 11.28C191.422 10.4533 192.836 10.04 194.436 10.04C195.929 10.04 197.156 10.3333 198.116 10.92C199.102 11.5067 199.836 12.4 200.316 13.6C200.796 14.7733 201.036 16.2667 201.036 18.08V30H196.036V18.28C196.036 16.7867 195.782 15.6933 195.276 15C194.796 14.3067 193.969 13.96 192.796 13.96C191.942 13.96 191.196 14.1733 190.556 14.6C189.916 15 189.422 15.5867 189.076 16.36C188.756 17.1333 188.596 18.0667 188.596 19.16V30H183.596V18.28C183.596 16.7867 183.342 15.6933 182.836 15C182.356 14.3067 181.542 13.96 180.396 13.96C179.516 13.96 178.756 14.1733 178.116 14.6C177.502 15 177.022 15.5867 176.676 16.36C176.356 17.1333 176.196 18.0667 176.196 19.16V30H171.196Z" fill="#171717"/>
</svg>
