<svg width="97" height="30" viewBox="0 0 97 30" fill="none" xmlns="http://www.w3.org/2000/svg">
<path d="M12.8 29.4C8.93333 29.4 5.97333 28.4 3.92 26.4C1.89333 24.3733 0.88 21.3867 0.88 17.44V0.799998H6V17.4C6 19.9333 6.57333 21.84 7.72 23.12C8.89333 24.3733 10.5867 25 12.8 25C15.0133 25 16.6933 24.3733 17.84 23.12C18.9867 21.84 19.56 19.9333 19.56 17.4V0.799998H24.64V17.44C24.64 21.3867 23.64 24.3733 21.64 26.4C19.64 28.4 16.6933 29.4 12.8 29.4ZM30.1313 29V9.44H35.0113V13.36H34.5713C35.1579 11.9467 36.0646 10.88 37.2913 10.16C38.5446 9.41333 39.9579 9.04 41.5313 9.04C43.1046 9.04 44.3979 9.33333 45.4113 9.92C46.4246 10.5067 47.1846 11.4 47.6913 12.6C48.1979 13.7733 48.4513 15.2667 48.4513 17.08V29H43.4513V17.32C43.4513 16.3067 43.3179 15.48 43.0513 14.84C42.8113 14.2 42.4246 13.7333 41.8913 13.44C41.3846 13.12 40.7313 12.96 39.9313 12.96C38.9713 12.96 38.1313 13.1733 37.4113 13.6C36.6913 14 36.1313 14.5867 35.7313 15.36C35.3313 16.1067 35.1313 16.9867 35.1313 18V29H30.1313ZM53.2097 5.24V0.359999H58.8097V5.24H53.2097ZM53.5297 29V9.44H58.5297V29H53.5297ZM72.685 29.4C70.0717 29.4 68.125 28.7467 66.845 27.44C65.565 26.1333 64.925 24.2267 64.925 21.72V13.2H61.165V9.44H64.925V3.6H69.925V9.44H75.845V13.2H69.925V21.44C69.925 22.72 70.205 23.68 70.765 24.32C71.325 24.96 72.2317 25.28 73.485 25.28C73.8583 25.28 74.245 25.24 74.645 25.16C75.045 25.0533 75.4583 24.9467 75.885 24.84L76.645 28.52C76.165 28.7867 75.5517 29 74.805 29.16C74.085 29.32 73.3783 29.4 72.685 29.4ZM88.5213 29.4C86.3079 29.4 84.4013 28.9867 82.8013 28.16C81.2013 27.3333 79.9613 26.16 79.0813 24.64C78.2279 23.12 77.8013 21.32 77.8013 19.24C77.8013 17.2133 78.2146 15.44 79.0413 13.92C79.8946 12.4 81.0546 11.2133 82.5213 10.36C84.0146 9.48 85.7079 9.04 87.6013 9.04C89.4679 9.04 91.0679 9.44 92.4013 10.24C93.7346 11.04 94.7613 12.1733 95.4813 13.64C96.2279 15.1067 96.6013 16.8533 96.6013 18.88V20.36H81.8413V17.48H93.0813L92.4413 18.08C92.4413 16.2667 92.0413 14.88 91.2413 13.92C90.4413 12.9333 89.2946 12.44 87.8013 12.44C86.6813 12.44 85.7213 12.7067 84.9213 13.24C84.1479 13.7467 83.5479 14.48 83.1213 15.44C82.7213 16.3733 82.5213 17.4933 82.5213 18.8V19.08C82.5213 20.5467 82.7479 21.76 83.2013 22.72C83.6546 23.68 84.3346 24.4 85.2413 24.88C86.1479 25.36 87.2679 25.6 88.6013 25.6C89.6946 25.6 90.7879 25.44 91.8813 25.12C92.9746 24.7733 93.9746 24.24 94.8813 23.52L96.2812 26.88C95.3479 27.6533 94.1746 28.2667 92.7613 28.72C91.3479 29.1733 89.9346 29.4 88.5213 29.4Z" fill="#6A42AB"/>
</svg>
