<svg width="24" height="24" viewBox="0 0 24 24" fill="none" xmlns="http://www.w3.org/2000/svg">
<path fill-rule="evenodd" clip-rule="evenodd" d="M8.4 16.2033V7.73934C8.4 6.06734 9.624 4.57934 11.288 4.41934C13.192 4.23534 14.8 5.73134 14.8 7.60334V17.4913C14.8 18.5393 14.048 19.4913 13.008 19.5953C11.808 19.7153 10.8 18.7793 10.8 17.6033V9.20334C10.8 8.76334 11.16 8.40334 11.6 8.40334C12.04 8.40334 12.4 8.76334 12.4 9.20334V16.2033C12.4 16.5313 12.672 16.8033 13 16.8033C13.328 16.8033 13.6 16.5313 13.6 16.2033V9.31534C13.6 8.26734 12.848 7.31534 11.808 7.21134C10.608 7.09134 9.6 8.02734 9.6 9.20334V17.4673C9.6 19.1393 10.824 20.6273 12.488 20.7873C14.4 20.9713 16 19.4753 16 17.6033V7.78734C16 5.49134 14.32 3.43534 12.032 3.21934C9.4 2.97934 7.2 5.02734 7.2 7.60334V16.2033C7.2 16.5313 7.472 16.8033 7.8 16.8033C8.128 16.8033 8.4 16.5313 8.4 16.2033Z" fill="#99A2AD"/>
</svg>
