<svg width="16" height="17" viewBox="0 0 16 17" fill="none" xmlns="http://www.w3.org/2000/svg">
<path d="M1.39994 9.12199C1.28883 9.01088 1.23605 8.87943 1.24161 8.72765C1.24716 8.57576 1.3055 8.44426 1.41661 8.33315C1.52772 8.22571 1.65922 8.1711 1.81111 8.16932C1.96289 8.16743 2.09433 8.22204 2.20544 8.33315L4.76111 10.8998C4.824 10.9628 4.89066 11.0295 4.96111 11.0998L5.16111 11.2998C5.27222 11.4109 5.32683 11.5405 5.32494 11.6887C5.32305 11.8369 5.26655 11.9665 5.15544 12.0777L5.14444 12.0887C5.03333 12.1961 4.90366 12.2508 4.75544 12.2527C4.60733 12.2544 4.47772 12.1998 4.36661 12.0887L1.39994 9.12199ZM7.89994 10.8943L13.8221 4.97199C13.9332 4.86088 14.0647 4.80626 14.2166 4.80815C14.3685 4.81004 14.5 4.86654 14.6111 4.97765C14.7184 5.08876 14.7731 5.22021 14.7749 5.37199C14.7768 5.52388 14.7222 5.65538 14.6111 5.76649L8.28877 12.0887C8.17766 12.1998 8.04805 12.2553 7.89994 12.2553C7.75183 12.2553 7.62222 12.1998 7.51111 12.0887L4.54444 9.12199C4.437 9.01465 4.38511 8.8841 4.38877 8.73032C4.39255 8.57665 4.44811 8.44426 4.55544 8.33315C4.66655 8.22204 4.799 8.16649 4.95277 8.16649C5.10644 8.16649 5.23883 8.22204 5.34994 8.33315L7.89994 10.8943ZM11.4611 5.77199L8.28877 8.94432C8.18144 9.05165 8.05277 9.10349 7.90277 9.09982C7.75277 9.09615 7.62222 9.0406 7.51111 8.93315C7.4 8.82204 7.34444 8.68965 7.34444 8.53599C7.34444 8.38221 7.4 8.24976 7.51111 8.13865L10.6721 4.97765C10.7796 4.87021 10.9101 4.81649 11.0638 4.81649C11.2176 4.81649 11.35 4.87021 11.4611 4.97765C11.5722 5.08876 11.6278 5.22115 11.6278 5.37482C11.6278 5.52849 11.5722 5.66088 11.4611 5.77199Z" fill="#6A42AB"/>
</svg>
